<svg width="182" height="182" viewBox="0 0 182 182" fill="none" xmlns="http://www.w3.org/2000/svg">
<path d="M2.90433 35.6738C-0.0387461 18.7622 -1.51028 10.3065 2.75912 5.01466C3.42866 4.18478 4.18478 3.42866 5.01465 2.75912C10.3065 -1.51028 18.7622 -0.0387375 35.6738 2.90434C72.2877 9.25947 109.712 9.25947 146.326 2.90434C163.238 -0.038738 171.694 -1.51028 176.985 2.75912C177.815 3.42866 178.571 4.18478 179.241 5.01465C183.51 10.3065 182.039 18.7622 179.096 35.6738C172.741 72.2877 172.741 109.712 179.096 146.326C182.039 163.238 183.51 171.694 179.241 176.985C178.571 177.815 177.815 178.571 176.985 179.241C171.694 183.51 163.238 182.039 146.326 179.096C109.712 172.741 72.2877 172.741 35.6738 179.096C18.7622 182.039 10.3065 183.51 5.01466 179.241C4.18478 178.571 3.42866 177.815 2.75911 176.985C-1.51028 171.694 -0.0387447 163.238 2.90433 146.326C9.25945 109.712 9.25945 72.2877 2.90433 35.6738Z" fill="white"/>
</svg>
